#N canvas 315 215 838 505 10;
#X declare -lib mrpeach;
#X obj 477 21 import mrpeach;
#X obj 29 146 packOSC;
#X obj 98 194 udpsend;
#X msg 141 166 disconnect;
#X msg 119 144 connect 127.0.0.1 3333;
#X floatatom 35 43 5 0 0 0 - - -;
#X msg 222 117 /add test;
#X msg 35 83 /camrotate \$1 \$2 \$3;
#X floatatom 75 43 5 0 0 0 - - -;
#X floatatom 118 41 5 0 0 0 - - -;
#X connect 1 0 2 0;
#X connect 3 0 2 0;
#X connect 4 0 2 0;
#X connect 5 0 7 0;
#X connect 6 0 1 0;
#X connect 7 0 1 0;
#X connect 8 0 7 0;
#X connect 9 0 7 0;
