#N canvas 2165 37 1376 1035 10;
#X obj 434 451 import mrpeach;
#X obj 247 444 udpsend;
#X msg 287 409 disconnect;
#X msg 808 114 /camrotate \$1 \$2 \$3;
#X msg 28 115 /camtranslate \$1 \$2 \$3;
#X msg 642 115 /color \$1;
#X msg 255 115 /fontcolor \$1;
#X msg 355 114 /rotation \$1;
#X msg 69 310 /clear;
#X msg 178 114 /add test;
#X msg 499 313 /add \\\\'a\\\\'e\\\\'o\\\\'i\\\\'u\\\\'n\\\\'A\\\\'E\\\\'I\\\\'O\\\\'U\\\\'N
;
#X msg 405 282 /add test\\\\ntest;
#X msg 287 383 connect 127.0.0.1 3333;
#X floatatom 256 81 5 0 0 0 - - -;
#X msg 443 115 /alpha \$1;
#X floatatom 356 79 5 0 0 0 - - -;
#X floatatom 718 70 5 0 0 0 - - -;
#X floatatom 27 31 5 0 0 0 - - -;
#X floatatom 67 30 5 0 0 0 - - -;
#X floatatom 112 29 5 0 0 0 - - -;
#X obj 28 91 pack \$1 \$2 \$3;
#X msg 74 54 bang;
#X msg 116 55 bang;
#X floatatom 641 72 5 0 0 0 - - -;
#X floatatom 729 29 5 0 0 0 - - -;
#X floatatom 769 28 5 0 0 0 - - -;
#X floatatom 814 27 5 0 0 0 - - -;
#X obj 806 85 pack \$1 \$2 \$3;
#X msg 852 48 bang;
#X msg 894 49 bang;
#X msg 718 115 /distort \$1;
#X floatatom 944 68 5 0 0 0 - - -;
#X msg 946 112 /fontscale \$1;
#X floatatom 1046 66 5 0 0 0 - - -;
#X msg 1046 113 /z \$1;
#X floatatom 443 80 5 0 0 0 - - -;
#X floatatom 1108 66 5 0 0 0 - - -;
#X msg 1108 113 /fadeindelay \$1;
#X msg 1185 108 /disintegrate 0 0 1 3;
#X obj 247 354 packOSC;
#X obj 1117 335 packOSC;
#X msg 1184 57 /disintegrate 0 2 2 3;
#X floatatom 1190 130 5 0 0 0 - - -;
#X msg 1190 157 /disintegrateSpeed \$1;
#X msg 1185 83 /disintegrate 0 0 0 9;
#X msg 1193 245 /integrate 0 0 1 3;
#X msg 1193 220 /integrate 0 0 0 3;
#X msg 1192 194 /integrate 0 2 2 1;
#X floatatom 515 81 5 0 0 0 - - -;
#X msg 515 116 /alpha \$1 0 0 0 9;
#X connect 2 0 1 0;
#X connect 3 0 39 0;
#X connect 4 0 39 0;
#X connect 5 0 39 0;
#X connect 6 0 39 0;
#X connect 7 0 39 0;
#X connect 8 0 39 0;
#X connect 9 0 39 0;
#X connect 10 0 39 0;
#X connect 11 0 39 0;
#X connect 12 0 1 0;
#X connect 13 0 6 0;
#X connect 14 0 39 0;
#X connect 15 0 7 0;
#X connect 16 0 30 0;
#X connect 17 0 20 0;
#X connect 18 0 20 1;
#X connect 18 0 21 0;
#X connect 19 0 20 2;
#X connect 19 0 22 0;
#X connect 20 0 4 0;
#X connect 21 0 20 0;
#X connect 22 0 20 0;
#X connect 23 0 5 0;
#X connect 24 0 27 0;
#X connect 25 0 27 1;
#X connect 25 0 28 0;
#X connect 26 0 27 2;
#X connect 26 0 29 0;
#X connect 27 0 3 0;
#X connect 28 0 27 0;
#X connect 29 0 27 0;
#X connect 30 0 39 0;
#X connect 31 0 32 0;
#X connect 32 0 40 0;
#X connect 33 0 34 0;
#X connect 34 0 40 0;
#X connect 35 0 14 0;
#X connect 36 0 37 0;
#X connect 37 0 40 0;
#X connect 38 0 40 0;
#X connect 39 0 1 0;
#X connect 40 0 1 0;
#X connect 41 0 40 0;
#X connect 42 0 43 0;
#X connect 43 0 40 0;
#X connect 44 0 40 0;
#X connect 45 0 40 0;
#X connect 46 0 40 0;
#X connect 47 0 40 0;
#X connect 48 0 49 0;
#X connect 49 0 39 0;
