#N canvas 49 23 889 1647 10;
#X obj 434 451 import mrpeach;
#X obj 247 354 packOSC;
#X obj 247 444 udpsend;
#X msg 287 409 disconnect;
#X msg 688 114 /camrotate \$1 \$2 \$3;
#X msg 28 115 /camtranslate \$1 \$2 \$3;
#X msg 522 115 /color \$1;
#X msg 255 115 /fontcolor \$1;
#X floatatom 440 76 5 0 0 0 - - -;
#X msg 355 115 /rotation \$1;
#X msg 69 310 /clear;
#X msg 178 114 /add test;
#X msg 379 313 /add \\\\'a\\\\'e\\\\'o\\\\'i\\\\'u\\\\'n\\\\'A\\\\'E\\\\'I\\\\'O\\\\'U\\\\'N
;
#X msg 405 282 /add test\\\\ntest;
#X msg 287 383 connect 127.0.0.1 3333;
#X floatatom 256 81 5 0 0 0 - - -;
#X msg 443 115 /alpha \$1;
#X floatatom 354 79 5 0 0 0 - - -;
#X floatatom 598 70 5 0 0 0 - - -;
#X floatatom 27 31 5 0 0 0 - - -;
#X floatatom 67 30 5 0 0 0 - - -;
#X floatatom 112 29 5 0 0 0 - - -;
#X obj 28 91 pack \$1 \$2 \$3;
#X msg 74 54 bang;
#X msg 116 55 bang;
#X floatatom 520 74 5 0 0 0 - - -;
#X floatatom 685 25 5 0 0 0 - - -;
#X floatatom 725 24 5 0 0 0 - - -;
#X floatatom 770 23 5 0 0 0 - - -;
#X obj 686 85 pack \$1 \$2 \$3;
#X msg 732 48 bang;
#X msg 774 49 bang;
#X msg 598 115 /distort \$1;
#X floatatom 824 68 5 0 0 0 - - -;
#X msg 824 115 /fontscale \$1;
#X connect 1 0 2 0;
#X connect 3 0 2 0;
#X connect 4 0 1 0;
#X connect 5 0 1 0;
#X connect 6 0 1 0;
#X connect 7 0 1 0;
#X connect 8 0 16 0;
#X connect 9 0 1 0;
#X connect 10 0 1 0;
#X connect 11 0 1 0;
#X connect 12 0 1 0;
#X connect 13 0 1 0;
#X connect 14 0 2 0;
#X connect 15 0 7 0;
#X connect 16 0 1 0;
#X connect 17 0 9 0;
#X connect 18 0 32 0;
#X connect 19 0 22 0;
#X connect 20 0 22 1;
#X connect 20 0 23 0;
#X connect 21 0 22 2;
#X connect 21 0 24 0;
#X connect 22 0 5 0;
#X connect 23 0 22 0;
#X connect 24 0 22 0;
#X connect 25 0 6 0;
#X connect 26 0 29 0;
#X connect 27 0 29 1;
#X connect 27 0 30 0;
#X connect 28 0 29 2;
#X connect 28 0 31 0;
#X connect 29 0 4 0;
#X connect 30 0 29 0;
#X connect 31 0 29 0;
#X connect 32 0 1 0;
#X connect 33 0 34 0;
#X connect 34 0 1 0;
